# xmcd CD database file generated by OrangeCD 5.2
#
# Track frame offsets:
#	150
#	13082
#	26425
#	40195
#	52827
#	65307
#	78532
#	91847
#	105535
#	120722
#	131505
#	144907
#	157897
#	170817
#	182797
#	193807
#	206042
#	220315
#	234070
#	248017
#
# Disc length: 3464 seconds
#
# Revision: 0
# Processed by: cddbd v1.5.1PL0 Copyright (c) Steve Scherf et al.
# Submitted via: OrangeCD 5.2
#
DISCID=080d8614
DTITLE=Various Artist - Jumpin' Jive  Disc 2
DYEAR=1995
DGENRE=Big Band/Swing
TTITLE0=Louis Jordan - What's Is The Use Of Getting Sober (When You're Gonna Ge
TTITLE0=t Drunk Again)
TTITLE1=Fats Waller - Your Feets Too Big
TTITLE2=Louis Armstrong and The Mills Brothers - Boog-It
TTITLE3=Erskine Hawkins - After Hours
TTITLE4=Cab Calloway - Jive 
TTITLE5=Lionel Hampton - Hamps Boogie Woogie No. 1
TTITLE6=Stuff Smith and His Onyx Club Boys - Here Comes The Man With The Jive
TTITLE7=Lucky Millinder - Ride Red Ride
TTITLE8=Frankie Newton - Rosetta
TTITLE9=Nat King Cole Trio - Sweet Lorraine
TTITLE10=Fats Waller - You Meet The Nicest People In Your Dreams
TTITLE11=Jimmy Rushing - Do You Wanna Jump Children
TTITLE12=Willie "The Lion" Smith - Harlem Joys
TTITLE13=Cab Calloway - Reefer Man
TTITLE14=Louis Prima - Swing Me With Rhythm
TTITLE15=Al Cooper - Jumpin' The Blues
TTITLE16=Benny Goodman - Roll "em
TTITLE17=Fats Waller - Squeeze Me
TTITLE18=The Spirits Of Rhythm - I Got Rhythm
TTITLE19=Louis Jordan - Doug The Jitter Bug
EXTD=
EXTT0=
EXTT1=
EXTT2=
EXTT3=
EXTT4=
EXTT5=
EXTT6=
EXTT7=
EXTT8=
EXTT9=
EXTT10=
EXTT11=
EXTT12=
EXTT13=
EXTT14=
EXTT15=
EXTT16=
EXTT17=
EXTT18=
EXTT19=
PLAYORDER=
